<svg version="1.2" xmlns="http://www.w3.org/2000/svg" viewBox="0 0 3088 3088" width="256" height="256"><style>.a{fill:none}.b{fill:#8b570c}.c{fill:#f0c566}</style><path fill-rule="evenodd" class="a" d="m0 0h3087.5v3087.5h-3087.5z"/><path fill-rule="evenodd" class="b" d="m291.7 2367.2c-93.7-115.6-96.8-228.1-93.7-256.3-9.4-62.5 12.5-121.8 43.7-168.7 15.7-25 34.4-46.9 53.2-62.5-71.9-75-81.3-165.6-81.3-165.6 0 0 0-3.2 0-6.3v-318.7c0-100 43.8-171.9 84.4-215.7-181.3-175-75-378.1-12.5-465.6-56.3-59.4-81.3-121.9-87.5-178.1-21.9-156.3 106.2-284.4 106.2-284.4q4.7-4.7 9.4-9.4c187.5-112.5 325-21.8 390.6 40.7 203.2-159.4 393.8-62.5 475-3.2 6.3-6.2 15.7-12.5 21.9-15.6 53.1-34.4 125-62.5 125-62.5 6.3 0 15.6-3.1 21.9-3.1l425 3.1c15.6 0 31.2 6.3 40.6 18.8 12.5 15.6 15.6 31.2 12.5 46.8-59.4 265.7 209.4 353.2 209.4 353.2 25 9.3 40.6 34.3 34.4 59.3-18.8 137.5 3.1 221.9 46.8 271.9 40.7 46.9 93.8 62.5 146.9 65.6 87.5 9.4 168.8-15.6 168.8-15.6 28.1-9.4 56.2 9.4 65.6 37.5 37.5 112.5 93.7 168.8 150 193.8 84.4 37.5 162.5 6.2 162.5 6.2 18.7-3.1 37.5-3.1 50 9.4 15.6 9.4 25 25 25 43.7v337.5 3.2c-12.5 143.7-46.9 218.7-81.3 259.3 56.3 75 81.3 146.9 87.5 209.4 6.3 125-56.2 225-96.8 275l65.6 96.9c3.1 3.1 6.2 6.2 6.2 12.5 106.3 268.7-165.6 393.7-165.6 393.7-3.1 0-6.2 3.2-9.4 3.2-134.3 31.2-256.2-40.7-315.6-90.7-56.2 46.9-109.4 71.9-109.4 71.9-6.2 3.1-12.5 3.1-21.8 3.1l-334.4 3.2q-4.7 0-9.4 0c-78.1-15.7-128.1-46.9-159.4-75-103.1 87.5-181.2 81.2-206.2 75l-665.6 6.2q-4.7 0-9.4 0c-50-9.4-93.8-37.5-128.1-71.9-9.4-9.3-18.8-18.7-25-28.1-93.8 90.6-178.2 109.4-250 103.1-109.4-9.3-181.3-90.6-181.3-90.6 0 0-3.1 0-3.1-3.1-62.5-78.1-78.1-150-75-212.5 6.2-87.5 56.2-159.4 93.7-200zm103.2-1625c-31.3 34.4-190.7 234.4 15.6 384.4 15.6 9.3 25 28.1 25 46.8-3.1 15.7-12.5 34.4-25 43.8 0 0-90.6 56.2-90.6 171.9l3.1 315.6c0 12.5 15.6 84.4 84.4 125 15.6 9.4 25 28.1 25 46.9 0 15.6-6.3 34.3-21.9 43.7 0 0-43.8 34.4-78.1 81.3-18.8 28.1-31.3 62.5-28.2 100 3.2 3.1 3.2 9.3 3.2 12.5 0 0-9.4 103.1 87.5 203.1 9.3 6.2 15.6 9.4 21.8 18.7 6.3 6.3 9.4 15.7 9.4 25 3.1 15.7 0 34.4-15.6 50-6.3 6.3-12.5 12.5-21.9 12.5-28.1 25-78.1 78.2-81.2 150-3.2 40.7 9.3 87.5 50 137.5 6.2 6.3 50 50 112.5 56.3 46.8 3.1 103.1-15.6 165.6-78.1l34.4-43.8c12.5-15.6 31.2-21.9 50-18.7 18.7 3.1 34.3 12.5 40.6 31.2 0 0 18.7 34.4 50 65.6 15.6 15.7 37.5 31.3 62.5 37.5l668.7-6.2c-28.1 0 15.7 3.1 15.7 3.1 0 0 65.6 0 150-87.5 12.5-12.5 31.2-15.6 46.8-15.6 18.8 3.1 34.4 15.6 40.7 31.2 0 0 31.2 50 121.8 68.8l315.7-3.1c18.7-9.4 62.5-34.4 100-75 9.3-9.4 25-18.8 40.6-18.8 15.6 0 28.1 6.3 40.6 18.8 0 0 43.8 46.8 109.4 75 40.6 18.7 87.5 31.2 137.5 18.7 28.1-12.5 165.6-90.6 106.2-246.9l-84.3-125c-18.8-21.8-12.5-53.1 6.2-71.8 0 0 103.1-90.7 93.8-221.9-6.3-56.3-21.9-162.5-93.8-187.5-6.2-3.1-25-18.8-18.7-34.4 6.2-25 37.5-53.1 37.5-53.1 0 0 56.2-43.8 68.7-209.4v-268.7c-46.9 6.2-109.4 3.1-171.9-25-68.7-28.2-143.7-90.7-193.7-215.7-37.5 9.4-96.9 15.7-156.3 9.4-78.1-6.2-159.3-34.4-218.7-100-56.3-62.5-93.8-162.5-78.1-318.7-84.4-40.7-268.8-159.4-246.9-396.9l-353.1-3.1c-15.7 6.2-50 21.8-78.2 37.5-21.8 12.5-43.7 21.8-50 34.3-9.3 12.5-21.8 21.9-40.6 25-15.6 3.2-31.2-3.1-43.7-15.6 0 0-200-187.5-409.4 9.4-9.4 12.5-28.1 15.6-43.8 15.6-15.6-3.1-28.1-9.4-37.5-25 0 0-109.3-153.1-278.1-56.2-18.7 18.7-81.2 96.8-71.9 190.6 6.3 40.6 28.2 87.5 78.2 131.2 6.2 3.2 12.5 6.3 15.6 12.5 21.9 18.8 25 50 6.2 71.9 0 3.1-3.1 3.1-3.1 3.1 0 3.2-3.1 6.3-6.2 6.3z"/><path fill-rule="evenodd" class="c" d="m394.9 742.2c-31.3 34.4-190.7 234.4 15.6 384.4 15.6 9.3 25 28.1 25 46.8-3.1 15.7-12.5 34.4-25 43.8 0 0-90.6 56.2-90.6 171.9l3.1 315.6c0 12.5 15.6 84.4 84.4 125 15.6 9.4 25 28.1 25 46.9 0 15.6-6.3 34.3-21.9 43.7 0 0-43.8 34.4-78.1 81.3-18.8 28.1-31.3 62.5-28.2 100 3.2 3.1 3.2 9.3 3.2 12.5 0 0-9.4 103.1 87.5 203.1 9.3 6.2 15.6 9.4 21.8 18.7 6.3 6.3 9.4 15.7 9.4 25 3.1 15.7 0 34.4-15.6 50-6.3 6.3-12.5 12.5-21.9 12.5-28.1 25-78.1 78.2-81.2 150-3.2 40.7 9.3 87.5 50 137.5 6.2 6.3 50 50 112.5 56.3 46.8 3.1 103.1-15.6 165.6-78.1l34.4-43.8c12.5-15.6 31.2-21.9 50-18.7 18.7 3.1 34.3 12.5 40.6 31.2 0 0 18.7 34.4 50 65.6 15.6 15.7 37.5 31.3 62.5 37.5l668.7-6.2c-28.1 0 15.7 3.1 15.7 3.1 0 0 65.6 0 150-87.5 12.5-12.5 31.2-15.6 46.8-15.6 18.8 3.1 34.4 15.6 40.7 31.2 0 0 31.2 50 121.8 68.8l315.7-3.1c18.7-9.4 62.5-34.4 100-75 9.3-9.4 25-18.8 40.6-18.8 15.6 0 28.1 6.3 40.6 18.8 0 0 43.8 46.8 109.4 75 40.6 18.7 87.5 31.2 137.5 18.7 28.1-12.5 165.6-90.6 106.2-246.9l-84.3-125c-18.8-21.8-12.5-53.1 6.2-71.8 0 0 103.1-90.7 93.8-221.9-6.3-56.3-21.9-162.5-93.8-187.5-6.2-3.1-25-18.8-18.7-34.4 6.2-25 37.5-53.1 37.5-53.1 0 0 56.2-43.8 68.7-209.4v-268.7c-46.9 6.2-109.4 3.1-171.9-25-68.7-28.2-143.7-90.7-193.7-215.7-37.5 9.4-96.9 15.7-156.3 9.4-78.1-6.2-159.3-34.4-218.7-100-56.3-62.5-93.8-162.5-78.1-318.7-84.4-40.7-268.8-159.4-246.9-396.9l-353.1-3.1c-15.7 6.2-50 21.8-78.2 37.5-21.8 12.5-43.7 21.8-50 34.3-9.3 12.5-21.8 21.9-40.6 25-15.6 3.2-31.2-3.1-43.7-15.6 0 0-200-187.5-409.4 9.4-9.4 12.5-28.1 15.6-43.8 15.6-15.6-3.1-28.1-9.4-37.5-25 0 0-109.3-153.1-278.1-56.2-18.7 18.7-81.2 96.8-71.9 190.6 6.3 40.6 28.2 87.5 78.2 131.2 6.2 3.2 12.5 6.3 15.6 12.5 21.9 18.8 25 50 6.2 71.9 0 3.1-3.1 3.1-3.1 3.1 0 3.2-3.1 6.3-6.2 6.3z"/><path fill-rule="evenodd" class="b" d="m2061.6 1477.9c19.8 16 33 40 33 68 0 28-13.2 52-33 68-191.5 123.9-601 399.8-832.1 555.7-33 24-75.9 24-109 8-36.3-20-56.1-56-56.1-96 0-283.8 0-791.6 0-1075.5 0-39.9 19.8-75.9 56.1-95.9 33.1-16 76-16 109 8 231.1 155.9 640.6 431.8 832.1 559.7z"/><path fill-rule="evenodd" class="b" d="m744.9 829.9c-44.9 0-81.3-36.3-81.3-81.2 0-45 36.4-81.3 81.3-81.3 44.9 0 81.2 36.3 81.2 81.3 0 44.9-36.3 81.2-81.2 81.2z"/><path fill-rule="evenodd" class="b" d="m748.5 1624.3c-44.9 0-81.2-36.3-81.2-81.3 0-44.9 36.3-81.2 81.2-81.2 45 0 81.3 36.3 81.3 81.2 0 45-36.3 81.3-81.3 81.3z"/><path fill-rule="evenodd" class="b" d="m746.7 2416.9c-44.9 0-81.2-36.4-81.2-81.3 0-44.9 36.3-81.2 81.2-81.2 44.9 0 81.3 36.3 81.3 81.2 0 44.9-36.4 81.3-81.3 81.3z"/><path fill-rule="evenodd" class="b" d="m1542.9 2422.3c-44.9 0-81.2-36.3-81.2-81.2 0-44.9 36.3-81.3 81.2-81.3 45 0 81.3 36.4 81.3 81.3 0 44.9-36.3 81.2-81.3 81.2z"/><path fill-rule="evenodd" class="b" d="m1995.8 2088.2c-44.9 0-81.2-36.4-81.2-81.3 0-44.9 36.3-81.2 81.2-81.2 45 0 81.3 36.3 81.3 81.2 0 44.9-36.3 81.3-81.3 81.3z"/><path fill-rule="evenodd" class="b" d="m2341 1631.9c-44.9 0-81.3-36.3-81.3-81.2 0-44.9 36.4-81.3 81.3-81.3 44.9 0 81.2 36.4 81.2 81.3 0 44.9-36.3 81.2-81.2 81.2z"/><path fill-rule="evenodd" class="b" d="m2336.5 2421.1c-44.9 0-81.2-36.3-81.2-81.3 0-44.9 36.3-81.2 81.2-81.2 45 0 81.3 36.3 81.3 81.2 0 45-36.3 81.3-81.3 81.3z"/><path fill-rule="evenodd" class="b" d="m1552.1 839.4c-45 0-81.3-36.3-81.3-81.3 0-44.9 36.3-81.2 81.3-81.2 44.9 0 81.2 36.3 81.2 81.2 0 45-36.3 81.3-81.2 81.3z"/></svg>